<svg width="1290" height="246" viewBox="0 0 1290 246" fill="none" xmlns="http://www.w3.org/2000/svg">
<path d="M166.589 235.343L105.122 243.274L97.6867 215.267H69.432L63.2358 243.274L0.034426 237.077L49.3563 72.0104L118.258 68.5406L166.589 235.343ZM93.2254 177.346L83.8072 134.22L74.6368 177.346H93.2254ZM149.983 29.8762C140.151 35.2463 130.568 40.6989 121.232 46.2342C111.897 51.6869 102.561 57.6352 93.2254 64.0793L77.3631 46.7299C79.0154 44.7471 80.9982 42.5578 83.3115 40.1619C85.6247 37.6834 88.0619 35.1636 90.623 32.6025C93.2667 30.0414 95.9931 27.4803 98.802 24.9192C101.611 22.2755 104.337 19.7557 106.981 17.3599C113.26 11.6594 119.828 5.91754 126.685 0.13441L149.983 29.8762ZM337.728 68.2927L328.805 236.334L263.869 242.282L229.17 152.313L223.718 244.017H167.952L172.413 68.2927L234.375 65.3185L277.253 154.544L279.236 70.2755L337.728 68.2927ZM488.296 147.604C488.296 159.17 486.809 169.621 483.834 178.957C480.86 188.21 476.688 196.472 471.318 203.742C466.031 210.929 459.711 217.126 452.358 222.33C445.005 227.535 436.95 231.831 428.192 235.219C419.435 238.523 410.1 241.002 400.186 242.654C390.354 244.224 380.234 245.009 369.824 245.009C365.941 245.009 362.141 244.926 358.423 244.761C354.705 244.513 350.905 244.182 347.022 243.769L350.492 77.4631C359.58 74.5715 368.915 72.5474 378.499 71.3908C388.165 70.1516 397.748 69.532 407.249 69.532C419.063 69.532 429.927 71.3082 439.841 74.8607C449.755 78.4132 458.306 83.5354 465.494 90.2273C472.681 96.9192 478.258 105.098 482.223 114.764C486.272 124.43 488.296 135.377 488.296 147.604ZM437.487 155.535C437.569 151.074 437.074 146.778 436 142.647C435.008 138.516 433.315 134.881 430.919 131.742C428.606 128.52 425.631 125.959 421.996 124.059C418.361 122.076 414.024 121.002 408.984 120.837L404.027 197.67C408.984 196.926 413.487 195.315 417.535 192.837C421.583 190.275 425.053 187.177 427.945 183.542C430.919 179.824 433.191 175.735 434.76 171.274C436.413 166.73 437.322 162.062 437.487 157.27V155.535ZM645.927 235.343L584.461 243.274L577.025 215.267H548.771L542.575 243.274L479.373 237.077L528.695 72.0104L597.597 68.5406L645.927 235.343ZM572.564 177.346L563.146 134.22L553.976 177.346H572.564ZM757.459 175.363L752.254 230.386L647.91 238.565C648.406 209.732 648.943 181.064 649.521 152.561C650.182 124.059 650.967 95.3908 651.876 66.5578H716.316C714.416 84.6507 712.599 102.744 710.864 120.837C709.129 138.847 707.889 157.022 707.146 175.363C711.029 175.528 714.87 175.611 718.671 175.611C722.471 175.611 726.313 175.611 730.196 175.611C734.822 175.611 739.366 175.57 743.827 175.487C748.289 175.405 752.833 175.363 757.459 175.363ZM880.64 67.3013C880.144 75.0672 879.69 82.7505 879.277 90.3512C878.863 97.9519 878.326 105.635 877.666 113.401L825.122 116.127L823.882 131.742H860.812L858.086 170.158L820.908 171.398L819.669 189.491H850.402H872.213C871.717 198.578 871.18 207.625 870.602 216.63C870.106 225.553 869.652 234.516 869.239 243.522L762.416 246L766.382 67.3013H880.64Z" fill="white"/>
<path d="M917 80.8883C917 64.3814 930.381 51 946.888 51H1290V144.112C1290 160.619 1276.62 174 1260.11 174H917V80.8883Z" fill="white"/>
<path d="M1009.81 124.112C1009.81 129.443 1008.88 134.055 1007.01 137.947C1005.18 141.8 1002.65 144.991 999.421 147.52C996.23 150.011 992.475 151.86 988.155 153.066C983.874 154.234 979.262 154.817 974.32 154.817C972.413 154.817 970.311 154.564 968.015 154.058C965.758 153.552 963.462 152.93 961.127 152.19C958.792 151.412 956.535 150.595 954.355 149.739C952.215 148.843 950.308 148.007 948.635 147.228L951.203 124.345C954.511 126.33 958.169 127.848 962.178 128.899C966.225 129.91 970.195 130.416 974.086 130.416C974.826 130.416 975.721 130.397 976.772 130.358C977.822 130.28 978.815 130.105 979.749 129.833C980.722 129.521 981.539 129.074 982.2 128.49C982.862 127.906 983.193 127.069 983.193 125.98C983.193 125.24 982.959 124.618 982.492 124.112C982.025 123.567 981.422 123.139 980.683 122.827C979.943 122.477 979.107 122.224 978.173 122.069C977.239 121.874 976.324 121.738 975.429 121.66C974.534 121.582 973.697 121.543 972.919 121.543C972.14 121.543 971.518 121.543 971.051 121.543C967.704 121.543 964.649 121.018 961.886 119.967C959.162 118.916 956.807 117.437 954.822 115.531C952.876 113.585 951.359 111.25 950.269 108.525C949.179 105.762 948.635 102.707 948.635 99.3605C948.635 94.7683 949.549 90.6626 951.378 87.0433C953.246 83.3851 955.717 80.2912 958.792 77.7616C961.905 75.193 965.466 73.2277 969.475 71.8656C973.483 70.5035 977.628 69.8225 981.909 69.8225C983.815 69.8225 985.781 69.9003 987.804 70.056C989.828 70.1727 991.832 70.4062 993.817 70.7565C995.841 71.1068 997.806 71.5543 999.713 72.0991C1001.62 72.644 1003.43 73.325 1005.14 74.1423L1002.92 97.8427C1000.28 96.9477 997.495 96.2082 994.576 95.6245C991.696 95.0018 988.875 94.6905 986.112 94.6905C985.606 94.6905 984.944 94.7099 984.127 94.7488C983.348 94.7488 982.512 94.8072 981.617 94.924C980.761 95.0018 979.885 95.138 978.99 95.3326C978.095 95.5272 977.297 95.7996 976.596 96.1499C975.896 96.4612 975.332 96.8893 974.904 97.4341C974.475 97.979 974.281 98.6211 974.32 99.3605C974.359 100.217 974.67 100.878 975.254 101.345C975.876 101.812 976.655 102.163 977.589 102.396C978.562 102.591 979.612 102.688 980.741 102.688C981.909 102.688 983.057 102.668 984.185 102.63C985.314 102.552 986.365 102.493 987.337 102.454C988.31 102.377 989.108 102.357 989.731 102.396C992.844 102.591 995.646 103.252 998.137 104.381C1000.63 105.509 1002.73 107.008 1004.44 108.876C1006.19 110.744 1007.52 112.981 1008.41 115.589C1009.35 118.157 1009.81 120.998 1009.81 124.112ZM1085.76 109.284C1085.76 112.826 1085.35 116.25 1084.53 119.558C1083.72 122.827 1082.53 125.902 1080.97 128.782C1079.45 131.662 1077.59 134.308 1075.37 136.721C1073.19 139.095 1070.72 141.138 1067.95 142.85C1065.23 144.563 1062.25 145.905 1059.02 146.878C1055.79 147.812 1052.37 148.279 1048.75 148.279C1045.25 148.279 1041.9 147.832 1038.71 146.937C1035.56 146.041 1032.6 144.796 1029.83 143.201C1027.07 141.566 1024.56 139.62 1022.3 137.363C1020.09 135.067 1018.18 132.537 1016.58 129.774C1015.03 126.972 1013.8 123.976 1012.91 120.784C1012.05 117.593 1011.62 114.266 1011.62 110.802C1011.62 107.416 1012.03 104.108 1012.85 100.878C1013.66 97.6092 1014.83 94.5348 1016.35 91.6549C1017.91 88.7751 1019.77 86.1287 1021.95 83.7159C1024.13 81.303 1026.57 79.221 1029.25 77.4697C1031.98 75.7184 1034.91 74.3563 1038.07 73.3834C1041.22 72.4105 1044.55 71.924 1048.05 71.924C1053.69 71.924 1058.83 72.7996 1063.46 74.5509C1068.13 76.3022 1072.1 78.8123 1075.37 82.0814C1078.68 85.3115 1081.22 89.2421 1083.01 93.8732C1084.84 98.4654 1085.76 103.602 1085.76 109.284ZM1059.84 110.802C1059.84 109.129 1059.59 107.514 1059.08 105.957C1058.61 104.361 1057.91 102.96 1056.98 101.754C1056.05 100.509 1054.88 99.5162 1053.48 98.7768C1052.11 97.9984 1050.54 97.6092 1048.75 97.6092C1046.92 97.6092 1045.28 97.94 1043.84 98.6016C1042.41 99.2632 1041.16 100.178 1040.11 101.345C1039.1 102.474 1038.32 103.817 1037.77 105.373C1037.23 106.891 1036.96 108.506 1036.96 110.218C1036.96 111.853 1037.19 113.487 1037.66 115.122C1038.12 116.756 1038.82 118.235 1039.76 119.558C1040.69 120.882 1041.84 121.952 1043.2 122.769C1044.6 123.586 1046.22 123.995 1048.05 123.995C1049.88 123.995 1051.51 123.645 1052.95 122.944C1054.43 122.205 1055.68 121.232 1056.69 120.025C1057.7 118.78 1058.48 117.36 1059.02 115.764C1059.57 114.168 1059.84 112.514 1059.84 110.802ZM1145.54 74.259L1143.43 98.8935C1142.31 98.5822 1141.2 98.3681 1140.11 98.2514C1139.02 98.1346 1137.91 98.0762 1136.78 98.0762C1134.02 98.0762 1131.37 98.4265 1128.84 99.127C1126.35 99.8275 1124.13 100.898 1122.18 102.338C1120.28 103.778 1118.74 105.607 1117.57 107.825C1116.44 110.004 1115.88 112.592 1115.88 115.589C1115.88 117.768 1116.19 119.675 1116.81 121.31C1117.48 122.905 1118.39 124.248 1119.56 125.338C1120.76 126.388 1122.2 127.186 1123.88 127.731C1125.59 128.276 1127.48 128.548 1129.54 128.548C1130.98 128.548 1132.46 128.412 1133.98 128.14C1135.49 127.828 1137.01 127.42 1138.53 126.914C1140.05 126.408 1141.51 125.824 1142.91 125.162C1144.31 124.501 1145.61 123.8 1146.82 123.061L1145.89 150.497C1144.37 151.276 1142.73 151.976 1140.98 152.599C1139.23 153.183 1137.42 153.689 1135.55 154.117C1133.72 154.584 1131.88 154.934 1130.01 155.168C1128.18 155.401 1126.43 155.518 1124.75 155.518C1119.23 155.518 1114.19 154.486 1109.63 152.424C1105.12 150.361 1101.23 147.559 1097.96 144.018C1094.73 140.437 1092.22 136.293 1090.43 131.584C1088.64 126.875 1087.74 121.855 1087.74 116.523C1087.74 110.141 1088.64 104.186 1090.43 98.66C1092.26 93.1338 1094.92 88.347 1098.43 84.2996C1101.97 80.2133 1106.33 77.0221 1111.5 74.726C1116.72 72.391 1122.69 71.2235 1129.42 71.2235C1132.11 71.2235 1134.83 71.4375 1137.6 71.8656C1140.36 72.2937 1143.01 73.0915 1145.54 74.259ZM1181.61 71.8073L1177.52 151.315L1152.89 152.599L1150.56 73.4418L1181.61 71.8073ZM1257.97 109.284C1257.97 112.826 1257.56 116.25 1256.74 119.558C1255.92 122.827 1254.74 125.902 1253.18 128.782C1251.66 131.662 1249.79 134.308 1247.58 136.721C1245.4 139.095 1242.93 141.138 1240.16 142.85C1237.44 144.563 1234.46 145.905 1231.23 146.878C1228 147.812 1224.58 148.279 1220.96 148.279C1217.45 148.279 1214.11 147.832 1210.92 146.937C1207.76 146.041 1204.81 144.796 1202.04 143.201C1199.28 141.566 1196.77 139.62 1194.51 137.363C1192.29 135.067 1190.39 132.537 1188.79 129.774C1187.23 126.972 1186.01 123.976 1185.11 120.784C1184.26 117.593 1183.83 114.266 1183.83 110.802C1183.83 107.416 1184.24 104.108 1185.06 100.878C1185.87 97.6092 1187.04 94.5348 1188.56 91.6549C1190.11 88.7751 1191.98 86.1287 1194.16 83.7159C1196.34 81.303 1198.77 79.221 1201.46 77.4697C1204.18 75.7184 1207.12 74.3563 1210.27 73.3834C1213.43 72.4105 1216.75 71.924 1220.26 71.924C1225.9 71.924 1231.04 72.7996 1235.67 74.5509C1240.34 76.3022 1244.31 78.8123 1247.58 82.0814C1250.88 85.3115 1253.43 89.2421 1255.22 93.8732C1257.05 98.4654 1257.97 103.602 1257.97 109.284ZM1232.05 110.802C1232.05 109.129 1231.79 107.514 1231.29 105.957C1230.82 104.361 1230.12 102.96 1229.19 101.754C1228.25 100.509 1227.09 99.5162 1225.68 98.7768C1224.32 97.9984 1222.75 97.6092 1220.96 97.6092C1219.13 97.6092 1217.49 97.94 1216.05 98.6016C1214.61 99.2632 1213.37 100.178 1212.32 101.345C1211.3 102.474 1210.53 103.817 1209.98 105.373C1209.44 106.891 1209.16 108.506 1209.16 110.218C1209.16 111.853 1209.4 113.487 1209.86 115.122C1210.33 116.756 1211.03 118.235 1211.97 119.558C1212.9 120.882 1214.05 121.952 1215.41 122.769C1216.81 123.586 1218.43 123.995 1220.26 123.995C1222.08 123.995 1223.72 123.645 1225.16 122.944C1226.64 122.205 1227.88 121.232 1228.9 120.025C1229.91 118.78 1230.69 117.36 1231.23 115.764C1231.78 114.168 1232.05 112.514 1232.05 110.802Z" fill="#F90050"/>
</svg>
